<svg width="25" height="24" viewBox="0 0 25 24" fill="none" xmlns="http://www.w3.org/2000/svg">
<path fill-rule="evenodd" clip-rule="evenodd" d="M13.2174 15.3287C14.0078 14.8495 14.6983 14.2086 15.2478 13.4441C15.0707 13.1553 14.9447 12.8353 14.8758 12.4996L14.8499 12.3739C14.7757 12.0149 14.6009 11.6874 14.3479 11.4333C14.0949 11.1792 13.7752 11.0102 13.43 10.9479C10.6065 10.4335 10.6065 6.18413 13.43 5.66832C13.7634 5.60813 14.0733 5.44831 14.3222 5.20804C14.5712 4.96776 14.7488 4.65725 14.8336 4.31378C14.1696 3.55515 13.3571 2.95598 12.4517 2.55729C11.5463 2.15861 10.5695 1.96984 9.58803 2.00391C8.60659 2.03799 7.64376 2.2941 6.76552 2.75471C5.88727 3.21531 5.11435 3.86953 4.49972 4.67254C3.88508 5.47555 3.44324 6.40838 3.20448 7.40712C2.96571 8.40587 2.93566 9.44693 3.11637 10.459C3.29709 11.471 3.68431 12.4302 4.2515 13.2707C4.81869 14.1112 5.55246 14.8133 6.40252 15.3287V16.999C6.40252 17.378 6.54609 17.7414 6.80165 18.0094C7.05721 18.2774 7.40381 18.4279 7.76523 18.4279H11.8533C12.2147 18.4279 12.5613 18.2774 12.8169 18.0094C13.0725 17.7414 13.216 17.378 13.216 16.999L13.2174 15.3287ZM6.40389 20.9284C6.40389 20.6442 6.51156 20.3716 6.70323 20.1706C6.8949 19.9696 7.15485 19.8567 7.42591 19.8567H12.1954C12.4664 19.8567 12.7264 19.9696 12.918 20.1706C13.1097 20.3716 13.2174 20.6442 13.2174 20.9284C13.2174 21.2126 13.1097 21.4852 12.918 21.6861C12.7264 21.8871 12.4664 22 12.1954 22H7.42591C7.15485 22 6.8949 21.8871 6.70323 21.6861C6.51156 21.4852 6.40389 21.2126 6.40389 20.9284ZM16.3244 4.44952C16.5737 3.255 18.1953 3.24786 18.4543 4.43951L18.4665 4.49667L18.491 4.60812C18.6381 5.26079 18.9645 5.85392 19.4298 6.3141C19.8951 6.77428 20.4788 7.0813 21.1088 7.19718C22.2971 7.41437 22.2971 9.20328 21.1088 9.42046C20.4752 9.53686 19.8883 9.8466 19.4218 10.3109C18.9552 10.7753 18.6295 11.3736 18.4856 12.031L18.4543 12.1767C18.1953 13.3698 16.5724 13.3626 16.3216 12.1667L16.2957 12.0424C16.1584 11.3825 15.8367 10.7804 15.3716 10.3129C14.9066 9.84543 14.3194 9.53375 13.6848 9.4176C12.4979 9.20185 12.4979 7.41579 13.6848 7.19861C14.3172 7.0833 14.9027 6.77383 15.3673 6.30938C15.8318 5.84493 16.1545 5.24639 16.2944 4.58954L16.3148 4.49667L16.3244 4.44952Z" fill="#141414"/>
</svg>
