<svg width="28" height="28" viewBox="0 0 28 28" fill="none" xmlns="http://www.w3.org/2000/svg">
<path d="M12.7401 3.34614C12.8685 3.12583 13.0524 2.94303 13.2735 2.81598C13.4946 2.68893 13.7451 2.62207 14.0001 2.62207C14.2551 2.62207 14.5056 2.68893 14.7267 2.81598C14.9478 2.94303 15.1317 3.12583 15.2601 3.34614L18.5209 8.94381L24.8536 10.3158C25.1027 10.3699 25.3333 10.4884 25.5223 10.6594C25.7113 10.8304 25.8522 11.048 25.931 11.2905C26.0097 11.5329 26.0235 11.7918 25.971 12.0412C25.9185 12.2907 25.8015 12.522 25.6318 12.7121L21.3151 17.5433L21.9684 23.9891C21.9942 24.243 21.9529 24.4991 21.8488 24.732C21.7446 24.9649 21.5812 25.1663 21.3748 25.3163C21.1684 25.4662 20.9262 25.5594 20.6726 25.5865C20.4189 25.6137 20.1625 25.5738 19.9291 25.4708L14.0001 22.8575L8.07111 25.4708C7.83768 25.5738 7.58133 25.6137 7.32765 25.5865C7.07398 25.5594 6.83185 25.4662 6.62545 25.3163C6.41906 25.1663 6.25561 24.9649 6.15143 24.732C6.04726 24.4991 6.006 24.243 6.03177 23.9891L6.6851 17.5433L2.36844 12.7133C2.19837 12.5232 2.08115 12.2918 2.02849 12.0421C1.97582 11.7925 1.98955 11.5335 2.06831 11.2909C2.14706 11.0482 2.28808 10.8305 2.4773 10.6594C2.66651 10.4883 2.89729 10.3698 3.1466 10.3158L9.47927 8.94381L12.7401 3.34614Z" fill="url(#paint0_linear_4258_9504)"/>
<defs>
<linearGradient id="paint0_linear_4258_9504" x1="13.9997" y1="2.66588" x2="13.9997" y2="25.551" gradientUnits="userSpaceOnUse">
<stop stop-color="#EDFB8B"/>
<stop offset="1" stop-color="#9EE44D"/>
</linearGradient>
</defs>
</svg>
