<svg width="24" height="24" viewBox="0 0 24 24" fill="none" xmlns="http://www.w3.org/2000/svg">
<path fill-rule="evenodd" clip-rule="evenodd" d="M12.7174 15.3287C13.5078 14.8495 14.1983 14.2086 14.7478 13.4441C14.5707 13.1553 14.4447 12.8353 14.3758 12.4996L14.3499 12.3739C14.2757 12.0149 14.1009 11.6874 13.8479 11.4333C13.5949 11.1792 13.2752 11.0102 12.93 10.9479C10.1065 10.4335 10.1065 6.18413 12.93 5.66832C13.2634 5.60813 13.5733 5.44831 13.8222 5.20804C14.0712 4.96776 14.2488 4.65725 14.3336 4.31378C13.6696 3.55515 12.8571 2.95598 11.9517 2.55729C11.0463 2.15861 10.0695 1.96984 9.08803 2.00391C8.10659 2.03799 7.14376 2.2941 6.26552 2.75471C5.38727 3.21531 4.61435 3.86953 3.99972 4.67254C3.38508 5.47555 2.94324 6.40838 2.70448 7.40712C2.46571 8.40587 2.43566 9.44693 2.61637 10.459C2.79709 11.471 3.18431 12.4302 3.7515 13.2707C4.31869 14.1112 5.05246 14.8133 5.90252 15.3287V16.999C5.90252 17.378 6.04609 17.7414 6.30165 18.0094C6.55721 18.2774 6.90381 18.4279 7.26523 18.4279H11.3533C11.7147 18.4279 12.0613 18.2774 12.3169 18.0094C12.5725 17.7414 12.716 17.378 12.716 16.999L12.7174 15.3287ZM5.90389 20.9284C5.90389 20.6442 6.01156 20.3716 6.20323 20.1706C6.3949 19.9696 6.65485 19.8567 6.92591 19.8567H11.6954C11.9664 19.8567 12.2264 19.9696 12.418 20.1706C12.6097 20.3716 12.7174 20.6442 12.7174 20.9284C12.7174 21.2126 12.6097 21.4852 12.418 21.6861C12.2264 21.8871 11.9664 22 11.6954 22H6.92591C6.65485 22 6.3949 21.8871 6.20323 21.6861C6.01156 21.4852 5.90389 21.2126 5.90389 20.9284ZM15.8244 4.44952C16.0737 3.255 17.6953 3.24786 17.9543 4.43951L17.9665 4.49667L17.991 4.60812C18.1381 5.26079 18.4645 5.85392 18.9298 6.3141C19.3951 6.77428 19.9788 7.0813 20.6088 7.19718C21.7971 7.41437 21.7971 9.20328 20.6088 9.42046C19.9752 9.53686 19.3883 9.8466 18.9218 10.3109C18.4552 10.7753 18.1295 11.3736 17.9856 12.031L17.9543 12.1767C17.6953 13.3698 16.0724 13.3626 15.8216 12.1667L15.7957 12.0424C15.6584 11.3825 15.3367 10.7804 14.8716 10.3129C14.4066 9.84543 13.8194 9.53375 13.1848 9.4176C11.9979 9.20185 11.9979 7.41579 13.1848 7.19861C13.8172 7.0833 14.4027 6.77383 14.8673 6.30938C15.3318 5.84493 15.6545 5.24639 15.7944 4.58954L15.8148 4.49667L15.8244 4.44952Z" fill="#90E0E7"/>
</svg>
